<svg preserveAspectRatio="none" width="100%" height="100%" overflow="visible" style="display: block;" viewBox="0 0 80 80" fill="none" xmlns="http://www.w3.org/2000/svg">
<g id="react-icons/AiOutlineWarning">
<path id="Vector" d="M36.25 56.25C36.25 57.2446 36.6451 58.1984 37.3483 58.9016C38.0516 59.6049 39.0054 60 40 60C40.9946 60 41.9484 59.6049 42.6516 58.9016C43.3549 58.1984 43.75 57.2446 43.75 56.25C43.75 55.2554 43.3549 54.3016 42.6516 53.5984C41.9484 52.8951 40.9946 52.5 40 52.5C39.0054 52.5 38.0516 52.8951 37.3483 53.5984C36.6451 54.3016 36.25 55.2554 36.25 56.25ZM37.5 32.5V46.875C37.5 47.2188 37.7812 47.5 38.125 47.5H41.875C42.2187 47.5 42.5 47.2188 42.5 46.875V32.5C42.5 32.1562 42.2187 31.875 41.875 31.875H38.125C37.7812 31.875 37.5 32.1562 37.5 32.5ZM74.6641 66.875L42.1641 10.625C41.6797 9.78906 40.8437 9.375 40 9.375C39.1562 9.375 38.3125 9.78906 37.8359 10.625L5.33594 66.875C4.375 68.5469 5.57812 70.625 7.5 70.625H72.5C74.4219 70.625 75.625 68.5469 74.6641 66.875ZM13.4531 64.6953L40 18.7422L66.5469 64.6953H13.4531Z" fill="var(--fill-0, #F42B2B)"/>
</g>
</svg>
