<svg preserveAspectRatio="none" width="100%" height="100%" overflow="visible" style="display: block;" viewBox="0 0 20 20" fill="none" xmlns="http://www.w3.org/2000/svg">
<g id="react-icons/AiOutlineWarning">
<path id="Vector" d="M9.0625 14.0625C9.0625 14.3111 9.16127 14.5496 9.33709 14.7254C9.5129 14.9012 9.75136 15 10 15C10.2486 15 10.4871 14.9012 10.6629 14.7254C10.8387 14.5496 10.9375 14.3111 10.9375 14.0625C10.9375 13.8139 10.8387 13.5754 10.6629 13.3996C10.4871 13.2238 10.2486 13.125 10 13.125C9.75136 13.125 9.5129 13.2238 9.33709 13.3996C9.16127 13.5754 9.0625 13.8139 9.0625 14.0625ZM9.375 8.125V11.7188C9.375 11.8047 9.44531 11.875 9.53125 11.875H10.4687C10.5547 11.875 10.625 11.8047 10.625 11.7188V8.125C10.625 8.03906 10.5547 7.96875 10.4687 7.96875H9.53125C9.44531 7.96875 9.375 8.03906 9.375 8.125ZM18.666 16.7188L10.541 2.65625C10.4199 2.44727 10.2109 2.34375 10 2.34375C9.78906 2.34375 9.57812 2.44727 9.45898 2.65625L1.33398 16.7188C1.09375 17.1367 1.39453 17.6562 1.875 17.6562H18.125C18.6055 17.6562 18.9062 17.1367 18.666 16.7188ZM3.36328 16.1738L10 4.68555L16.6367 16.1738H3.36328Z" fill="var(--fill-0, #F42B2B)"/>
</g>
</svg>
