<svg preserveAspectRatio="none" width="100%" height="100%" overflow="visible" style="display: block;" viewBox="0 0 40 40" fill="none" xmlns="http://www.w3.org/2000/svg">
<g id="react-icons/PiShieldWarningBold">
<path id="Vector" d="M18.125 20.625V15C18.125 14.5027 18.3225 14.0258 18.6742 13.6742C19.0258 13.3225 19.5027 13.125 20 13.125C20.4973 13.125 20.9742 13.3225 21.3258 13.6742C21.6775 14.0258 21.875 14.5027 21.875 15V20.625C21.875 21.1223 21.6775 21.5992 21.3258 21.9508C20.9742 22.3025 20.4973 22.5 20 22.5C19.5027 22.5 19.0258 22.3025 18.6742 21.9508C18.3225 21.5992 18.125 21.1223 18.125 20.625ZM20 29.375C20.4945 29.375 20.9778 29.2284 21.3889 28.9537C21.8 28.679 22.1205 28.2885 22.3097 27.8317C22.4989 27.3749 22.5484 26.8722 22.452 26.3873C22.3555 25.9023 22.1174 25.4569 21.7678 25.1072C21.4181 24.7576 20.9727 24.5195 20.4877 24.423C20.0028 24.3266 19.5001 24.3761 19.0433 24.5653C18.5865 24.7545 18.196 25.075 17.9213 25.4861C17.6466 25.8972 17.5 26.3805 17.5 26.875C17.5 27.538 17.7634 28.1739 18.2322 28.6428C18.7011 29.1116 19.337 29.375 20 29.375ZM35.625 8.75V17.5C35.625 25.9828 31.5125 31.1281 28.0625 33.9516C24.3578 36.9812 20.65 38.0141 20.4938 38.0594C20.1704 38.1469 19.8296 38.1469 19.5062 38.0594C19.35 38.0156 15.6422 36.9812 11.9375 33.9516C8.4875 31.1281 4.375 25.9828 4.375 17.5V8.75C4.375 7.9212 4.70424 7.12634 5.29029 6.54029C5.87634 5.95424 6.6712 5.625 7.5 5.625H32.5C33.3288 5.625 34.1237 5.95424 34.7097 6.54029C35.2958 7.12634 35.625 7.9212 35.625 8.75ZM31.875 9.375H8.125V17.5C8.125 23.0797 10.1703 27.6078 14.2047 30.9609C15.9337 32.3882 17.8936 33.5101 20 34.2781C22.1062 33.5097 24.066 32.3879 25.7953 30.9609C29.8297 27.6078 31.875 23.0797 31.875 17.5V9.375Z" fill="var(--fill-0, #6C4BFF)"/>
</g>
</svg>
