<svg preserveAspectRatio="none" width="100%" height="100%" overflow="visible" style="display: block;" viewBox="0 0 30 30" fill="none" xmlns="http://www.w3.org/2000/svg">
<g id="react-icons/BiSun">
<path id="Vector" d="M8.74125 15C8.74125 18.4512 11.5487 21.2587 15 21.2587C18.4512 21.2587 21.2587 18.4512 21.2587 15C21.2587 11.5488 18.4512 8.74125 15 8.74125C11.5487 8.74125 8.74125 11.5488 8.74125 15ZM15 11.2413C17.0725 11.2413 18.7587 12.9275 18.7587 15C18.7587 17.0725 17.0725 18.7587 15 18.7587C12.9275 18.7587 11.2412 17.0725 11.2412 15C11.2412 12.9275 12.9275 11.2413 15 11.2413ZM13.7475 23.75H16.2475V27.5H13.7475V23.75ZM13.7475 2.5H16.2475V6.25H13.7475V2.5ZM2.4975 13.75H6.2475V16.25H2.4975V13.75ZM23.7475 13.75H27.4975V16.25H23.7475V13.75ZM5.27375 22.9538L7.92375 20.3012L9.6925 22.0688L7.0425 24.7213L5.27375 22.9538ZM20.3 7.93L22.9525 5.2775L24.72 7.045L22.0675 9.6975L20.3 7.93ZM7.9275 9.69875L5.275 7.04625L7.04375 5.27875L9.69375 7.93125L7.9275 9.69875ZM24.72 22.955L22.9525 24.7225L20.3 22.07L22.0675 20.3025L24.72 22.955Z" fill="var(--fill-0, #8D8D8D)"/>
</g>
</svg>
