<svg preserveAspectRatio="none" width="100%" height="100%" overflow="visible" style="display: block;" viewBox="0 0 30 30" fill="none" xmlns="http://www.w3.org/2000/svg">
<g id="react-icons/AiOutlineMoon">
<path id="Vector" fill-rule="evenodd" clip-rule="evenodd" d="M14.3406 3.27123C15.2388 3.21873 15.688 4.33881 15.0024 4.92149C13.413 6.27231 12.4805 8.24481 12.4805 10.3711C12.4805 14.3191 15.6809 17.5195 19.6289 17.5195C21.7552 17.5195 23.7277 16.587 25.0785 14.9975C25.6606 14.3127 26.7796 14.7602 26.7289 15.6576C26.3789 21.8503 21.2444 26.7188 15.0146 26.7188C8.53447 26.7188 3.28125 21.4655 3.28125 14.9854C3.28125 8.79229 8.09435 3.67605 14.2441 3.27688L14.2501 3.2765L14.3406 3.27123ZM11.9634 5.60766L11.8429 5.64756C7.94238 6.97099 5.15625 10.6668 5.15625 14.9854C5.15625 20.43 9.57 24.8438 15.0146 24.8438C19.3588 24.8438 23.0695 22.0256 24.3736 18.0935L24.3919 18.0368L24.3887 18.0389C23.0065 18.8982 21.3967 19.3794 19.7093 19.3942L19.6289 19.3945C14.6454 19.3945 10.6055 15.3546 10.6055 10.3711C10.6055 8.65444 11.0882 7.01543 11.9611 5.61132L11.9634 5.60766Z" fill="var(--fill-0, #8D8D8D)"/>
</g>
</svg>
